<svg width="24" height="24" viewBox="0 0 24 24" fill="none" xmlns="http://www.w3.org/2000/svg">
<g clip-path="url(#clip0_80_74)">
<path fill-rule="evenodd" clip-rule="evenodd" d="M12.0658 21.7341C17.3901 21.7341 21.7063 17.4179 21.7063 12.0936C21.7063 6.76932 17.3901 2.45312 12.0658 2.45312C6.74149 2.45312 2.42529 6.76932 2.42529 12.0936C2.42529 17.4179 6.74149 21.7341 12.0658 21.7341ZM12 19.2211C16.0249 19.2211 19.2878 15.9582 19.2878 11.9333C19.2878 7.90839 16.0249 4.64555 12 4.64555C7.97508 4.64555 4.71224 7.90839 4.71224 11.9333C4.71224 15.9582 7.97508 19.2211 12 19.2211Z" fill="#D9D9D9"/>
<path d="M10.1555 0.852336C10.2287 0.362509 10.6493 0 11.1446 0H12.9875C13.4827 0 13.9034 0.362483 13.9765 0.852288L14.3153 3.12069C14.4056 3.7251 13.9374 4.26841 13.3263 4.26841H10.8059C10.1948 4.26841 9.72662 3.72514 9.81685 3.12074L10.1555 0.852336Z" fill="#D9D9D9"/>
<path d="M18.5509 2.74751C18.949 2.45286 19.5028 2.49397 19.853 2.84417L21.1561 4.14733C21.5063 4.49752 21.5474 5.05127 21.2528 5.44934L19.8884 7.2929C19.5248 7.78412 18.8096 7.83723 18.3775 7.40511L16.5953 5.62291C16.1632 5.19081 16.2163 4.4756 16.7074 4.11204L18.5509 2.74751Z" fill="#D9D9D9"/>
<path d="M23.1477 10.0227C23.6375 10.0958 24 10.5165 24 11.0118V12.8547C24 13.3499 23.6375 13.7706 23.1477 13.8437L20.8793 14.1825C20.2749 14.2728 19.7316 13.8046 19.7316 13.1935V10.6731C19.7316 10.062 20.2749 9.59381 20.8793 9.68404L23.1477 10.0227Z" fill="#D9D9D9"/>
<path d="M21.2535 18.4181C21.5481 18.8162 21.507 19.3699 21.1568 19.7201L19.8536 21.0233C19.5035 21.3735 18.9497 21.4146 18.5516 21.12L16.7081 19.7556C16.2169 19.392 16.1637 18.6768 16.5959 18.2446L18.3781 16.4625C18.8102 16.0303 19.5254 16.0834 19.8889 16.5746L21.2535 18.4181Z" fill="#D9D9D9"/>
<path d="M10.1555 23.0158C10.2287 23.5057 10.6493 23.8682 11.1446 23.8682H12.9875C13.4827 23.8682 13.9034 23.5057 13.9765 23.0159L14.3153 20.7475C14.4056 20.1431 13.9374 19.5998 13.3263 19.5998H10.8059C10.1948 19.5998 9.72662 20.143 9.81685 20.7474L10.1555 23.0158Z" fill="#D9D9D9"/>
<path d="M2.87886 18.4201C2.58421 18.8181 2.62532 19.3719 2.97552 19.7221L4.27868 21.0253C4.62886 21.3754 5.18262 21.4166 5.58069 21.122L7.42425 19.7575C7.91546 19.394 7.96858 18.6787 7.53646 18.2466L5.75426 16.4644C5.32215 16.0323 4.60695 16.0854 4.24339 16.5766L2.87886 18.4201Z" fill="#D9D9D9"/>
<path d="M0.983684 10.0227C0.493857 10.0958 0.131348 10.5165 0.131348 11.0118V12.8547C0.131348 13.3499 0.493831 13.7706 0.983635 13.8437L3.25204 14.1825C3.85645 14.2728 4.39975 13.8046 4.39975 13.1935V10.6731C4.39975 10.062 3.85648 9.59381 3.25209 9.68404L0.983684 10.0227Z" fill="#D9D9D9"/>
<path d="M5.58043 2.74751C5.18236 2.45286 4.62859 2.49397 4.27839 2.84417L2.97523 4.14733C2.62504 4.49752 2.58392 5.05127 2.87854 5.44934L4.24298 7.2929C4.60653 7.78411 5.32177 7.83723 5.75389 7.40511L7.53608 5.62291C7.96819 5.19081 7.91509 4.4756 7.42392 4.11204L5.58043 2.74751Z" fill="#D9D9D9"/>
</g>
<defs>
<clipPath id="clip0_80_74">
<rect width="24" height="24" fill="white"/>
</clipPath>
</defs>
</svg>
