<svg width="24" height="24" viewBox="0 0 24 24" fill="none" xmlns="http://www.w3.org/2000/svg">
<g clip-path="url(#clip0_84_122)">
<path fill-rule="evenodd" clip-rule="evenodd" d="M1.25751 16.6708C-0.419169 18.3475 -0.419169 21.0659 1.25751 22.7426C2.93418 24.4193 5.65261 24.4193 7.32928 22.7426L11.8608 18.2111C13.5375 16.5344 13.5375 13.816 11.8608 12.1393C10.1841 10.4627 7.46568 10.4627 5.789 12.1393L1.25751 16.6708ZM3.63021 17.0153C2.70399 17.9415 2.70399 19.4432 3.63021 20.3694C4.55643 21.2956 6.05812 21.2956 6.98433 20.3694L9.48759 17.8662C10.4138 16.94 10.4138 15.4383 9.48759 14.512C8.56137 13.5858 7.05968 13.5858 6.13346 14.512L3.63021 17.0153Z" fill="#D9D9D9"/>
<path fill-rule="evenodd" clip-rule="evenodd" d="M12.1393 5.789C10.4627 7.46568 10.4627 10.1841 12.1393 11.8608C13.816 13.5375 16.5344 13.5375 18.2111 11.8608L22.7426 7.32929C24.4193 5.65261 24.4193 2.93418 22.7426 1.25751C21.0659 -0.419168 18.3475 -0.41917 16.6708 1.25751L12.1393 5.789ZM14.512 6.13346C13.5858 7.05968 13.5858 8.56137 14.512 9.48759C15.4383 10.4138 16.94 10.4138 17.8662 9.48759L20.3694 6.98433C21.2956 6.05812 21.2956 4.55643 20.3694 3.63021C19.4432 2.70399 17.9415 2.70399 17.0153 3.63021L14.512 6.13346Z" fill="#D9D9D9"/>
</g>
<defs>
<clipPath id="clip0_84_122">
<rect width="24" height="24" fill="white"/>
</clipPath>
</defs>
</svg>
