<svg width="24" height="24" viewBox="0 0 24 24" fill="none" xmlns="http://www.w3.org/2000/svg">
<g clip-path="url(#clip0_85_138)">
<mask id="path-1-inside-1_85_138" fill="white">
<path fill-rule="evenodd" clip-rule="evenodd" d="M12 24C18.6274 24 24 18.6274 24 12C24 5.37258 18.6274 0 12 0C5.37258 0 0 5.37258 0 12C0 18.6274 5.37258 24 12 24ZM12 22.3931C17.7399 22.3931 22.3931 17.7399 22.3931 12C22.3931 6.26007 17.7399 1.60693 12 1.60693C6.26007 1.60693 1.60693 6.26007 1.60693 12C1.60693 17.7399 6.26007 22.3931 12 22.3931Z"/>
</mask>
<path fill-rule="evenodd" clip-rule="evenodd" d="M12 24C18.6274 24 24 18.6274 24 12C24 5.37258 18.6274 0 12 0C5.37258 0 0 5.37258 0 12C0 18.6274 5.37258 24 12 24ZM12 22.3931C17.7399 22.3931 22.3931 17.7399 22.3931 12C22.3931 6.26007 17.7399 1.60693 12 1.60693C6.26007 1.60693 1.60693 6.26007 1.60693 12C1.60693 17.7399 6.26007 22.3931 12 22.3931Z" fill="#D9D9D9"/>
<path d="M21 12C21 16.9706 16.9706 21 12 21V27C20.2843 27 27 20.2843 27 12H21ZM12 3C16.9706 3 21 7.02944 21 12H27C27 3.71573 20.2843 -3 12 -3V3ZM3 12C3 7.02944 7.02944 3 12 3V-3C3.71573 -3 -3 3.71573 -3 12H3ZM12 21C7.02944 21 3 16.9706 3 12H-3C-3 20.2843 3.71573 27 12 27V21ZM19.3931 12C19.3931 16.0831 16.0831 19.3931 12 19.3931V25.3931C19.3968 25.3931 25.3931 19.3968 25.3931 12H19.3931ZM12 4.60693C16.0831 4.60693 19.3931 7.91692 19.3931 12H25.3931C25.3931 4.60321 19.3968 -1.39307 12 -1.39307V4.60693ZM4.60693 12C4.60693 7.91692 7.91692 4.60693 12 4.60693V-1.39307C4.60321 -1.39307 -1.39307 4.60321 -1.39307 12H4.60693ZM12 19.3931C7.91692 19.3931 4.60693 16.0831 4.60693 12H-1.39307C-1.39307 19.3968 4.60321 25.3931 12 25.3931V19.3931Z" fill="#D9D9D9" mask="url(#path-1-inside-1_85_138)"/>
<rect x="20" y="11" width="2" height="16" transform="rotate(90 20 11)" fill="#D9D9D9"/>
<rect x="11" y="4" width="2" height="16" fill="#D9D9D9"/>
</g>
<defs>
<clipPath id="clip0_85_138">
<rect width="24" height="24" fill="white"/>
</clipPath>
</defs>
</svg>
