<svg width="24" height="24" viewBox="0 0 24 24" fill="none" xmlns="http://www.w3.org/2000/svg">
<g clip-path="url(#clip0_80_64)">
<path d="M1.91667 24V23.5H1C0.723858 23.5 0.5 23.2761 0.5 23V21.9664H0V19.8993H0.5V17.8322H0V15.765H0.5V13.6979H0V11.6308H0.5V9.56364H0V7.49651H0.5V6.46294C0.5 6.32116 0.560197 6.18604 0.665609 6.09121L1.42473 5.40835L1.09034 5.03662L2.60858 3.67088L2.94297 4.04261L4.4612 2.67687L4.12681 2.30514L5.64505 0.939408L5.97944 1.31114L6.73856 0.62827C6.83036 0.54569 6.94947 0.5 7.07295 0.5H8.06839V0H10.0593V0.5H12.0502V0H14.041V0.5H16.0319V0H18.0228V0.5H20.0137V0H22.0046V0.5H23C23.2761 0.5 23.5 0.723857 23.5 1V1.91667H24V3.75H23.5V5.58333H24V7.41667H23.5V9.25H24V11.0833H23.5V12.9167H24V14.75H23.5V16.5833H24V18.4167H23.5V20.25H24V22.0833H23.5V23C23.5 23.2761 23.2761 23.5 23 23.5H22.0833V24H20.25V23.5H18.4167V24H16.5833V23.5H14.75V24H12.9167V23.5H11.0833V24H9.25V23.5H7.41667V24H5.58333V23.5H3.75V24H1.91667Z" stroke="#D9D9D9" stroke-dasharray="2 2"/>
</g>
<defs>
<clipPath id="clip0_80_64">
<rect width="24" height="24" fill="white"/>
</clipPath>
</defs>
</svg>
