<svg width="24" height="24" viewBox="0 0 24 24" fill="none" xmlns="http://www.w3.org/2000/svg">
<g clip-path="url(#clip0_82_89)">
<path d="M0 24C2.33207 22.2722 4.21063 17.9539 4.8584 16.0107H11.3362C7.79497 21.8837 2.30322 23.784 0 24Z" fill="#D9D9D9"/>
<path fill-rule="evenodd" clip-rule="evenodd" d="M6 0C2.68629 0 0 2.68629 0 6V13.8975C0 17.2112 2.68629 19.8975 6 19.8975H18C21.3137 19.8975 24 17.2112 24 13.8975V6C24 2.68629 21.3137 0 18 0H6ZM3.32315 10.6485V12.5107H6.19815V10.6404C6.19271 9.98695 6.27711 9.4016 6.45135 8.88432C6.62559 8.36159 6.85973 7.86065 7.15376 7.38148L5.4549 6.45037C5.10097 6.74985 4.75793 7.13101 4.42578 7.59384C4.09908 8.05122 3.83227 8.54673 3.62536 9.08034C3.42389 9.60852 3.32315 10.1312 3.32315 10.6485ZM7.4233 10.6485V12.5107H10.2983V10.6404C10.2929 9.98695 10.3772 9.4016 10.5515 8.88432C10.7257 8.36159 10.9599 7.86065 11.2539 7.38148L9.55504 6.45037C9.20111 6.74985 8.85807 7.13101 8.52592 7.59384C8.19922 8.05122 7.93241 8.54673 7.7255 9.08034C7.52403 9.60852 7.4233 10.1312 7.4233 10.6485ZM16.6078 9.14569V7.28347H13.7328V9.15385C13.7328 9.8726 13.6348 10.4933 13.4387 11.0161C13.2427 11.5334 13.0195 11.9989 12.769 12.4127L14.4679 13.3438C14.8327 13.028 15.1784 12.6414 15.5051 12.184C15.8319 11.7267 16.0959 11.2366 16.2974 10.7139C16.5043 10.1857 16.6078 9.66297 16.6078 9.14569ZM20.6834 9.14569V7.28347H17.8084V9.15385C17.8084 9.8726 17.7104 10.4933 17.5144 11.0161C17.3184 11.5334 17.0951 11.9989 16.8446 12.4127L18.5435 13.3438C18.9083 13.028 19.2541 12.6414 19.5808 12.184C19.9075 11.7267 20.1716 11.2366 20.373 10.7139C20.58 10.1857 20.6834 9.66297 20.6834 9.14569Z" fill="#D9D9D9"/>
</g>
<defs>
<clipPath id="clip0_82_89">
<rect width="24" height="24" fill="white"/>
</clipPath>
</defs>
</svg>
