<svg width="24" height="24" viewBox="0 0 24 24" fill="none" xmlns="http://www.w3.org/2000/svg">
<g clip-path="url(#clip0_80_67)">
<path d="M8.2953 15.6275L1.50872 22.4143" stroke="#D9D9D9" stroke-width="3" stroke-linecap="round"/>
<path fill-rule="evenodd" clip-rule="evenodd" d="M14.7158 18.5684C19.8433 18.5684 24 14.4117 24 9.28418C24 4.15667 19.8433 0 14.7158 0C9.58831 0 5.43164 4.15667 5.43164 9.28418C5.43164 14.4117 9.58831 18.5684 14.7158 18.5684ZM14.7158 16.2607C18.5686 16.2607 21.6919 13.1374 21.6919 9.28467C21.6919 5.43189 18.5686 2.30859 14.7158 2.30859C10.863 2.30859 7.73975 5.43189 7.73975 9.28467C7.73975 13.1374 10.863 16.2607 14.7158 16.2607Z" fill="#D9D9D9"/>
</g>
<defs>
<clipPath id="clip0_80_67">
<rect width="24" height="24" fill="white"/>
</clipPath>
</defs>
</svg>
